<svg width="196" height="43" viewBox="0 0 196 43" fill="none" xmlns="http://www.w3.org/2000/svg">
<path d="M34.5 10.25C34.5 14.806 27.112 18.5 18 18.5C8.888 18.5 1.5 14.806 1.5 10.25M34.5 10.25C34.5 5.694 27.112 2 18 2C8.888 2 1.5 5.694 1.5 10.25M34.5 10.25V32.75C34.5 37.306 27.112 41 18 41C8.888 41 1.5 37.306 1.5 32.75V10.25M34.5 10.25V17.75M1.5 10.25V17.75M34.5 17.75V25.25C34.5 29.806 27.112 33.5 18 33.5C8.888 33.5 1.5 29.806 1.5 25.25V17.75M34.5 17.75C34.5 22.306 27.112 26 18 26C8.888 26 1.5 22.306 1.5 17.75" stroke="#DFE4E2" stroke-width="3" stroke-linecap="round" stroke-linejoin="round"/>
<path d="M50.5 33.1365V9.86375H60.5455C62.2727 9.86375 63.7841 10.1781 65.0795 10.8069C66.375 11.4357 67.3826 12.341 68.1023 13.5228C68.822 14.7047 69.1818 16.1213 69.1818 17.7728C69.1818 19.4395 68.8106 20.8448 68.0682 21.9887C67.3333 23.1327 66.2992 23.9963 64.9659 24.5797C63.6402 25.163 62.0909 25.4547 60.3182 25.4547H54.3182V20.5456H59.0455C59.7879 20.5456 60.4205 20.4547 60.9432 20.2728C61.4735 20.0834 61.8788 19.7842 62.1591 19.3751C62.447 18.966 62.5909 18.4319 62.5909 17.7728C62.5909 17.1062 62.447 16.5645 62.1591 16.1478C61.8788 15.7236 61.4735 15.413 60.9432 15.216C60.4205 15.0115 59.7879 14.9092 59.0455 14.9092H56.8182V33.1365H50.5ZM64.1364 22.4547L69.9545 33.1365H63.0909L57.4091 22.4547H64.1364Z" fill="#111C18"/>
<path d="M80 33.4547C78.1061 33.4547 76.4848 33.0797 75.1364 32.3297C73.7879 31.5721 72.7538 30.519 72.0341 29.1706C71.3144 27.8145 70.9545 26.2425 70.9545 24.4547C70.9545 22.6668 71.3144 21.0986 72.0341 19.7501C72.7538 18.3941 73.7879 17.341 75.1364 16.591C76.4848 15.8334 78.1061 15.4547 80 15.4547C81.8939 15.4547 83.5152 15.8334 84.8636 16.591C86.2121 17.341 87.2462 18.3941 87.9659 19.7501C88.6856 21.0986 89.0455 22.6668 89.0455 24.4547C89.0455 26.2425 88.6856 27.8145 87.9659 29.1706C87.2462 30.519 86.2121 31.5721 84.8636 32.3297C83.5152 33.0797 81.8939 33.4547 80 33.4547ZM80.0455 28.8183C80.5758 28.8183 81.0341 28.6403 81.4205 28.2842C81.8068 27.9281 82.1061 27.4206 82.3182 26.7615C82.5303 26.1024 82.6364 25.3183 82.6364 24.4092C82.6364 23.4925 82.5303 22.7084 82.3182 22.0569C82.1061 21.3978 81.8068 20.8903 81.4205 20.5342C81.0341 20.1781 80.5758 20.0001 80.0455 20.0001C79.4848 20.0001 79.0038 20.1781 78.6023 20.5342C78.2008 20.8903 77.8939 21.3978 77.6818 22.0569C77.4697 22.7084 77.3636 23.4925 77.3636 24.4092C77.3636 25.3183 77.4697 26.1024 77.6818 26.7615C77.8939 27.4206 78.2008 27.9281 78.6023 28.2842C79.0038 28.6403 79.4848 28.8183 80.0455 28.8183Z" fill="#111C18"/>
<path d="M104.045 17.1365C103.985 16.3789 103.701 15.788 103.193 15.3637C102.693 14.9395 101.932 14.7274 100.909 14.7274C100.258 14.7274 99.7235 14.8069 99.3068 14.966C98.8977 15.1175 98.5947 15.3259 98.3977 15.591C98.2008 15.8562 98.0985 16.1592 98.0909 16.5001C98.0758 16.7804 98.125 17.0342 98.2386 17.2615C98.3598 17.4812 98.5492 17.6819 98.8068 17.8637C99.0644 18.038 99.3939 18.1971 99.7955 18.341C100.197 18.485 100.674 18.6137 101.227 18.7274L103.136 19.1365C104.424 19.4092 105.527 19.769 106.443 20.216C107.36 20.663 108.11 21.1895 108.693 21.7956C109.277 22.3941 109.705 23.0683 109.977 23.8183C110.258 24.5683 110.402 25.3865 110.409 26.2728C110.402 27.8031 110.019 29.0986 109.261 30.1592C108.504 31.2198 107.42 32.0266 106.011 32.5797C104.61 33.1327 102.924 33.4092 100.955 33.4092C98.9318 33.4092 97.1667 33.11 95.6591 32.5115C94.1591 31.913 92.9924 30.9925 92.1591 29.7501C91.3333 28.5001 90.9167 26.9016 90.9091 24.9547H96.9091C96.947 25.6668 97.125 26.2653 97.4432 26.7501C97.7614 27.235 98.2083 27.6024 98.7841 27.8524C99.3674 28.1024 100.061 28.2274 100.864 28.2274C101.538 28.2274 102.102 28.144 102.557 27.9774C103.011 27.8107 103.356 27.5797 103.591 27.2842C103.826 26.9887 103.947 26.6516 103.955 26.2728C103.947 25.9168 103.83 25.6062 103.602 25.341C103.383 25.0683 103.019 24.8259 102.511 24.6137C102.004 24.394 101.318 24.1895 100.455 24.0001L98.1364 23.5001C96.0758 23.0531 94.4508 22.3069 93.2614 21.2615C92.0795 20.2084 91.4924 18.7728 91.5 16.9547C91.4924 15.4774 91.8864 14.1857 92.6818 13.0797C93.4849 11.966 94.5947 11.0986 96.0114 10.4774C97.4356 9.85617 99.0682 9.54556 100.909 9.54556C102.788 9.54556 104.413 9.85996 105.784 10.4887C107.155 11.1175 108.212 12.0039 108.955 13.1478C109.705 14.2842 110.083 15.6137 110.091 17.1365H104.045Z" fill="#111C18"/>
<path d="M121.812 24.5001H126.722L128.494 26.7274L131.494 30.1365L135.403 34.8637H129.812L127.04 31.6365L125.176 28.9547L121.812 24.5001ZM135.358 21.5001C135.358 24.091 134.854 26.2766 133.847 28.0569C132.839 29.8297 131.479 31.1744 129.767 32.091C128.055 33.0001 126.146 33.4547 124.04 33.4547C121.919 33.4547 120.002 32.9963 118.29 32.0797C116.585 31.1554 115.229 29.8069 114.222 28.0342C113.222 26.2539 112.722 24.0759 112.722 21.5001C112.722 18.9092 113.222 16.7274 114.222 14.9547C115.229 13.1744 116.585 11.8297 118.29 10.9206C120.002 10.0039 121.919 9.54556 124.04 9.54556C126.146 9.54556 128.055 10.0039 129.767 10.9206C131.479 11.8297 132.839 13.1744 133.847 14.9547C134.854 16.7274 135.358 18.9092 135.358 21.5001ZM128.858 21.5001C128.858 20.1062 128.672 18.9319 128.301 17.9774C127.937 17.0153 127.396 16.288 126.676 15.7956C125.964 15.2956 125.085 15.0456 124.04 15.0456C122.994 15.0456 122.112 15.2956 121.392 15.7956C120.68 16.288 120.138 17.0153 119.767 17.9774C119.403 18.9319 119.222 20.1062 119.222 21.5001C119.222 22.8941 119.403 24.0721 119.767 25.0342C120.138 25.9887 120.68 26.716 121.392 27.216C122.112 27.7084 122.994 27.9547 124.04 27.9547C125.085 27.9547 125.964 27.7084 126.676 27.216C127.396 26.716 127.937 25.9887 128.301 25.0342C128.672 24.0721 128.858 22.8941 128.858 21.5001Z" fill="#111C18"/>
<path d="M138.312 33.1365V9.86375H144.631V28.0456H154.04V33.1365H138.312Z" fill="#111C18"/>
<path d="M156.685 33.1365V15.6819H162.957V33.1365H156.685ZM159.821 13.8637C158.973 13.8637 158.245 13.5834 157.639 13.0228C157.033 12.4622 156.73 11.788 156.73 11.0001C156.73 10.2122 157.033 9.53799 157.639 8.97738C158.245 8.41678 158.973 8.13647 159.821 8.13647C160.677 8.13647 161.404 8.41678 162.003 8.97738C162.609 9.53799 162.912 10.2122 162.912 11.0001C162.912 11.788 162.609 12.4622 162.003 13.0228C161.404 13.5834 160.677 13.8637 159.821 13.8637Z" fill="#111C18"/>
<path d="M176.562 15.6819V20.2274H165.062V15.6819H176.562ZM167.29 11.5001H173.562V27.5228C173.562 27.7653 173.604 27.9698 173.688 28.1365C173.771 28.2956 173.9 28.4168 174.074 28.5001C174.248 28.5759 174.472 28.6137 174.744 28.6137C174.934 28.6137 175.153 28.591 175.403 28.5456C175.661 28.5001 175.85 28.4622 175.972 28.4319L176.881 32.841C176.6 32.9244 176.199 33.0266 175.676 33.1478C175.161 33.2691 174.547 33.3486 173.835 33.3865C172.396 33.4622 171.188 33.3145 170.21 32.9433C169.233 32.5645 168.498 31.9698 168.006 31.1592C167.513 30.3486 167.275 29.3334 167.29 28.1137V11.5001Z" fill="#111C18"/>
<path d="M187.298 33.4547C185.435 33.4547 183.829 33.0986 182.48 32.3865C181.139 31.6668 180.105 30.6365 179.378 29.2956C178.658 27.9471 178.298 26.3334 178.298 24.4547C178.298 22.6516 178.662 21.0759 179.389 19.7274C180.116 18.3789 181.143 17.3297 182.469 16.5797C183.795 15.8297 185.359 15.4547 187.162 15.4547C188.48 15.4547 189.673 15.6592 190.741 16.0683C191.81 16.4774 192.723 17.0721 193.48 17.8524C194.238 18.6251 194.821 19.5645 195.23 20.6706C195.639 21.7766 195.844 23.0228 195.844 24.4092V25.8637H180.253V22.4092H190.071C190.063 21.9092 189.935 21.4698 189.685 21.091C189.442 20.7047 189.113 20.4054 188.696 20.1933C188.287 19.9736 187.821 19.8637 187.298 19.8637C186.791 19.8637 186.325 19.9736 185.901 20.1933C185.476 20.4054 185.135 20.7009 184.878 21.0797C184.628 21.4584 184.495 21.9016 184.48 22.4092V26.1365C184.48 26.6971 184.598 27.1971 184.832 27.6365C185.067 28.0759 185.404 28.4206 185.844 28.6706C186.283 28.9206 186.813 29.0456 187.435 29.0456C187.866 29.0456 188.26 28.985 188.616 28.8637C188.98 28.7425 189.291 28.5683 189.548 28.341C189.806 28.1062 189.995 27.8259 190.116 27.5001H195.844C195.647 28.7122 195.181 29.7653 194.446 30.6592C193.711 31.5456 192.738 32.235 191.526 32.7274C190.321 33.2122 188.912 33.4547 187.298 33.4547Z" fill="#111C18"/>
</svg>
